<svg id="Слой_1" data-name="Слой 1" xmlns="http://www.w3.org/2000/svg" viewBox="0 0 64.51 80.59"><defs><style>.cls-1{fill:#bcbcbc}.cls-2{fill:#bdbdbc}</style></defs><title>apple</title><path class="cls-1" d="M261.44 77.44c-.13-7.26 1.8-13.78 7.06-18.95 5.77-5.66 13.47-6.77 20.74-3.28 3.51 1.68 6.89 1.44 10.5-.12 6.72-2.91 13.46-2.92 19.93 1a7.72 7.72 0 0 1 .92.65c4.12 3.38 3.87 3.22.35 7.07C313.45 72 314 83.07 322.65 90c3.72 3 4.09 2.94 2.11 7.41-2.39 5.41-5.27 10.62-10.11 14.32-3.26 2.48-6.75 3.22-10.72 1.23a18.28 18.28 0 0 0-16.5-.16c-6 2.7-9.27 1.5-14.15-4.53-7.28-8.98-11.56-19.15-11.84-30.83z" transform="translate(-261.43 -33.58)"/><path class="cls-2" d="M310.1 35.84c-.89 7.82-5.25 14.16-13.65 16.16-2.26.55-3-.29-2.73-2.75a18.46 18.46 0 0 1 13.8-15.4c2.48-.56 2.6-.46 2.58 1.99z" transform="translate(-261.43 -33.58)"/></svg>